# xmcd CD database file
#
# Track frame offsets:
#	150
#	20787
#	37782
#
# Disc length: 797 seconds
#
# Revision: 2
# Processed by: cddbd v1.5.2PL0 Copyright (c) Steve Scherf et al.
# Submitted via: CDex 1.70beta2
#
DISCID=1a031b03
DTITLE=ゆず - 桜木町/シュミのハバ/夢の地図
DYEAR=2004
DGENRE=JPop
TTITLE0=桜木町
TTITLE1=シュミのハバ
TTITLE2=夢の地図
EXTD=YEAR: 2004
EXTT0=
EXTT1=
EXTT2=
PLAYORDER=
